<?xml version="1.0" standalone="no"?>
<!DOCTYPE svg PUBLIC "-//W3C//DTD SVG 20010904//EN"
 "http://www.w3.org/TR/2001/REC-SVG-20010904/DTD/svg10.dtd">
<svg version="1.0" xmlns="http://www.w3.org/2000/svg"
 width="2048.000000pt" height="2048.000000pt" viewBox="0 0 2048.000000 2048.000000"
 preserveAspectRatio="xMidYMid meet">

<g transform="translate(0.000000,2048.000000) scale(0.100000,-0.100000)"
fill="#000000" stroke="none">
<path d="M9660 20460 c-1134 -72 -2183 -303 -3195 -705 -2339 -929 -4257
-2691 -5386 -4947 -1297 -2592 -1427 -5643 -355 -8347 433 -1093 1041 -2082
1845 -3001 164 -188 665 -692 851 -856 912 -807 1891 -1417 2988 -1861 516
-208 1066 -380 1602 -498 178 -40 579 -115 611 -115 19 0 19 40 19 3570 l0
3570 -1300 0 -1300 0 0 1485 0 1485 1300 0 1300 0 0 1253 c0 723 4 1313 10
1397 96 1405 672 2453 1677 3051 452 269 964 433 1594 511 168 20 225 22 654
22 483 0 649 -8 1150 -55 312 -29 1004 -117 1068 -135 16 -5 17 -72 15 -1267
l-3 -1262 -800 -6 c-875 -6 -858 -5 -1100 -69 -266 -70 -466 -182 -640 -355
-252 -251 -388 -590 -415 -1036 -5 -90 -10 -588 -10 -1106 l0 -943 1420 0
c1306 0 1420 -1 1420 -16 0 -14 -429 -2830 -445 -2921 l-6 -33 -1194 0 -1195
0 0 -3570 c0 -3475 0 -3570 19 -3570 37 0 419 72 617 116 2106 469 4011 1598
5449 3229 1911 2168 2810 5023 2489 7910 -266 2400 -1386 4638 -3156 6305
-1648 1554 -3753 2512 -6003 2735 -88 8 -216 20 -285 26 -160 13 -1132 20
-1310 9z"/>
</g>
</svg>
