<?xml version="1.0" standalone="no"?>
<!DOCTYPE svg PUBLIC "-//W3C//DTD SVG 20010904//EN"
 "http://www.w3.org/TR/2001/REC-SVG-20010904/DTD/svg10.dtd">
<svg version="1.0" xmlns="http://www.w3.org/2000/svg"
 width="1080.000000pt" height="1080.000000pt" viewBox="0 0 1080.000000 1080.000000"
 preserveAspectRatio="xMidYMid meet">

<g transform="translate(0.000000,1080.000000) scale(0.100000,-0.100000)"
fill="#000000" stroke="none">
<path d="M4977 9490 c-137 -36 -229 -148 -210 -254 20 -115 89 -169 248 -195
39 -7 102 -17 140 -23 124 -20 166 -64 150 -158 -6 -34 -14 -44 -48 -64 -23
-13 -73 -31 -111 -41 -65 -17 -71 -17 -150 0 -44 10 -97 26 -117 36 -20 10
-40 15 -44 11 -8 -8 -36 -74 -33 -77 36 -23 104 -47 177 -61 76 -14 100 -15
142 -6 28 7 60 12 73 12 12 0 39 9 61 20 22 11 44 20 50 20 19 0 82 73 99 114
21 52 20 115 -3 170 -16 35 -31 51 -73 75 -29 17 -69 33 -88 36 -19 3 -66 12
-105 20 -38 8 -90 16 -113 20 -54 7 -118 38 -132 64 -5 11 -10 36 -10 56 0 67
30 101 116 133 76 27 133 28 217 2 75 -23 92 -20 106 23 14 39 8 45 -75 68
-84 23 -177 23 -267 -1z"/>
<path d="M6515 9391 c-51 -32 -87 -78 -100 -128 l-13 -48 -56 2 c-52 2 -56 0
-62 -23 -9 -35 -1 -47 42 -63 44 -16 57 -30 43 -47 -5 -6 -13 -31 -19 -55 -5
-24 -19 -78 -31 -119 -12 -41 -26 -97 -32 -125 -5 -27 -15 -63 -23 -80 -7 -16
-15 -46 -19 -66 -8 -42 4 -56 55 -61 35 -3 35 -3 57 62 12 36 22 73 22 84 1
10 8 39 15 65 8 25 22 71 30 101 57 205 48 185 86 184 19 0 56 -7 82 -14 54
-16 63 -11 77 38 l9 31 -55 11 c-30 7 -70 18 -88 26 -31 13 -33 16 -25 47 22
100 80 130 165 87 51 -26 59 -25 80 6 17 26 16 27 -6 49 -56 53 -177 72 -234
36z"/>
<path d="M5724 9285 c-93 -29 -148 -75 -190 -156 -25 -48 -28 -65 -29 -149 0
-80 4 -102 23 -138 35 -65 85 -115 148 -147 51 -26 67 -29 153 -29 70 0 104 5
126 17 17 9 39 20 51 26 34 15 83 70 109 122 22 42 25 62 25 148 0 109 -15
155 -69 215 -80 88 -231 128 -347 91z m179 -95 c93 -35 137 -100 137 -206 0
-154 -124 -260 -264 -224 -69 17 -118 58 -150 125 -31 67 -32 97 -6 168 23 62
69 113 125 138 53 23 93 23 158 -1z"/>
<path d="M6888 9183 c-11 -3 -22 -21 -29 -46 -19 -67 -29 -72 -83 -48 l-47 20
-8 -22 c-24 -65 -24 -66 13 -72 57 -11 63 -27 37 -93 -12 -31 -26 -64 -31 -73
-4 -8 -20 -47 -35 -85 -15 -38 -33 -83 -41 -101 -21 -46 -18 -141 5 -180 25
-40 93 -80 153 -88 68 -10 88 -1 88 41 0 32 -2 34 -35 34 -58 0 -124 52 -125
98 0 19 44 139 80 217 5 11 21 49 36 85 14 36 28 67 29 69 5 4 92 -27 127 -45
38 -20 45 -18 59 23 10 32 10 38 -7 50 -10 7 -23 13 -29 13 -6 0 -34 11 -62
25 l-52 24 19 48 c9 26 21 56 25 66 4 9 5 17 2 17 -2 0 -20 6 -38 13 -19 8
-42 12 -51 10z"/>
<path d="M7222 8863 c-6 -27 -16 -70 -22 -98 -6 -27 -16 -66 -22 -85 -6 -19
-18 -62 -25 -95 -8 -33 -21 -85 -29 -115 -30 -119 -42 -183 -37 -196 7 -18 55
-44 81 -44 11 0 30 8 43 18 36 28 230 164 268 187 8 6 35 22 58 38 23 15 44
27 47 27 10 0 7 -45 -3 -56 -5 -5 -14 -31 -20 -59 -19 -95 -32 -150 -46 -195
-8 -25 -18 -67 -23 -95 -5 -27 -13 -57 -16 -66 -9 -21 46 -69 78 -69 13 0 38
11 57 23 106 73 171 118 224 156 33 23 106 75 163 114 l103 72 -26 22 c-36 31
-59 29 -114 -10 -163 -117 -367 -257 -375 -257 -5 0 10 85 17 97 4 6 14 42 23
79 8 38 22 94 29 124 8 30 23 91 34 135 l20 80 -25 23 c-14 12 -34 22 -44 22
-15 0 -134 -70 -150 -89 -3 -3 -58 -41 -122 -85 -65 -43 -118 -82 -118 -85 0
-4 -13 -12 -30 -18 -27 -10 -30 -9 -30 8 0 11 4 27 10 37 9 16 25 76 55 202 8
30 25 100 40 155 l26 100 -28 22 c-43 35 -59 30 -71 -24z"/>
<path d="M4294 8861 c-23 -10 -55 -22 -73 -26 -17 -3 -33 -11 -36 -16 -4 -5
-13 -9 -20 -9 -8 0 -37 -10 -64 -21 -47 -21 -49 -23 -39 -50 15 -44 28 -50 78
-33 25 9 49 19 55 23 5 5 21 11 35 14 14 3 53 16 87 29 l62 24 -19 42 c-11 23
-20 42 -22 42 -2 0 -22 -9 -44 -19z"/>
<path d="M3455 8745 c-39 -41 -65 -98 -65 -140 0 -15 -2 -15 -16 -4 -8 7 -22
26 -30 42 -14 27 -17 28 -33 13 -10 -9 -22 -16 -27 -16 -6 0 -18 -6 -28 -13
-17 -12 -15 -16 18 -60 20 -26 36 -50 36 -54 0 -10 112 -178 122 -181 4 -2 8
-8 8 -14 0 -17 130 -209 145 -214 12 -5 34 6 83 42 4 3 -114 191 -134 214 -27
32 -65 114 -70 154 -10 67 10 119 61 164 l46 40 -22 36 c-11 20 -28 36 -37 36
-8 0 -34 -20 -57 -45z"/>
<path d="M2915 8349 c-51 -28 -129 -107 -156 -161 -29 -57 -33 -181 -6 -221 9
-14 17 -33 17 -42 0 -9 30 -46 68 -83 74 -73 134 -102 214 -102 49 0 134 25
159 46 8 8 21 14 27 14 19 0 110 100 133 147 12 25 24 64 26 87 5 39 3 44 -18
49 -56 15 -69 10 -70 -30 -1 -77 -106 -182 -202 -203 -45 -10 -62 -10 -109 4
-74 21 -79 38 -26 84 72 63 317 293 324 304 9 15 -49 70 -106 101 -44 24 -61
27 -143 27 -75 0 -100 -4 -132 -21z m213 -84 c51 -22 51 -42 2 -84 -24 -20
-88 -76 -142 -126 -55 -49 -103 -91 -108 -93 -19 -7 -50 63 -50 111 0 62 19
102 73 155 62 61 137 73 225 37z"/>
<path d="M8130 8115 c-7 -20 -10 -37 -8 -39 1 -1 29 -14 60 -30 80 -39 154
-120 163 -177 4 -26 2 -57 -5 -74 -14 -36 -48 -75 -67 -75 -7 0 -22 10 -32 23
-152 182 -197 217 -278 217 -53 0 -114 -29 -141 -67 -30 -42 -34 -169 -7 -197
8 -8 15 -19 15 -25 0 -21 75 -93 122 -117 26 -13 61 -24 78 -24 37 0 38 -12 5
-37 l-25 -18 31 -38 c17 -20 34 -37 37 -37 4 0 27 19 53 43 25 23 72 64 105
92 162 136 224 215 224 287 0 120 -154 291 -291 323 -24 6 -28 3 -39 -30z
m-105 -261 c31 -15 185 -175 185 -193 0 -5 -16 -23 -35 -40 -64 -56 -153 -40
-235 44 -36 37 -43 51 -47 92 -4 52 -2 58 41 91 34 26 47 27 91 6z"/>
<path d="M2490 7832 c-75 -23 -133 -63 -170 -117 -47 -68 -60 -108 -60 -180 0
-36 -2 -65 -4 -65 -2 0 -17 7 -32 15 -40 21 -47 19 -73 -16 -26 -35 -23 -41
42 -85 23 -16 92 -65 154 -109 62 -44 167 -118 233 -165 67 -47 144 -102 172
-122 59 -44 81 -47 102 -16 27 38 20 63 -26 94 -103 70 -193 136 -196 144 -1
4 14 10 36 13 21 4 59 21 86 38 51 34 116 112 116 138 0 10 6 23 13 29 22 23
15 160 -11 215 -44 93 -140 173 -226 188 -23 4 -54 9 -71 12 -16 3 -55 -2 -85
-11z m164 -114 c75 -40 147 -146 145 -217 -1 -52 -48 -130 -105 -173 -44 -34
-55 -38 -110 -38 -104 0 -200 69 -231 167 -14 45 -15 60 -4 108 11 47 22 65
66 110 38 38 64 55 87 58 44 6 128 -3 152 -15z"/>
<path d="M8625 7556 c-69 -46 -181 -117 -235 -150 -25 -15 -72 -45 -105 -66
-33 -22 -72 -45 -87 -51 -33 -13 -36 -37 -7 -73 27 -34 47 -33 108 7 197 126
239 148 295 154 71 8 150 -39 192 -115 3 -5 84 52 84 60 0 4 -19 27 -42 51
-31 32 -59 49 -101 62 -55 17 -57 19 -41 36 10 11 23 19 31 19 7 0 16 7 19 15
7 17 -33 85 -49 85 -7 -1 -34 -16 -62 -34z"/>
<path d="M2075 7133 c-67 -27 -121 -70 -154 -121 -17 -27 -31 -55 -31 -63 0
-8 -7 -23 -15 -33 -24 -31 -20 -176 5 -231 27 -60 72 -109 126 -139 50 -28
139 -56 179 -56 40 0 131 29 145 45 7 8 18 15 24 15 13 0 62 48 80 78 54 94
60 109 64 188 4 73 1 88 -23 143 -35 77 -93 130 -180 165 -76 30 -159 34 -220
9z m165 -105 c50 -13 92 -42 133 -96 24 -32 27 -43 27 -119 l0 -82 -57 -59
c-52 -53 -64 -60 -110 -66 -101 -13 -200 29 -250 107 -23 35 -27 53 -27 112 0
62 3 75 31 116 35 50 65 74 121 94 38 13 52 13 132 -7z"/>
<path d="M8708 7090 c-118 -21 -208 -105 -247 -231 -39 -126 47 -324 170 -388
l36 -19 21 37 22 38 -49 33 c-83 57 -130 186 -101 276 14 45 52 99 80 114 17
9 22 4 45 -43 14 -30 25 -57 25 -61 0 -5 7 -24 16 -44 27 -60 50 -114 67 -157
8 -22 26 -66 38 -97 15 -40 28 -58 40 -58 9 0 46 19 80 43 47 31 72 57 99 102
33 56 35 63 34 150 -1 77 -5 98 -27 142 -30 59 -86 117 -137 143 -42 21 -148
31 -212 20z m153 -100 c56 -16 104 -66 128 -135 12 -32 21 -65 21 -73 0 -31
-53 -122 -85 -146 l-34 -26 -26 57 c-15 32 -33 71 -41 86 -8 16 -14 33 -14 38
0 6 -8 29 -18 52 -10 23 -27 61 -37 84 -9 23 -15 49 -12 57 7 19 63 21 118 6z"/>
<path d="M1461 6464 c-19 -67 -19 -66 76 -84 54 -10 269 -65 323 -82 19 -6 53
-15 75 -19 46 -9 138 -33 209 -54 26 -8 61 -15 77 -15 15 0 31 -4 34 -10 15
-25 44 -9 56 29 16 55 8 67 -53 79 -29 6 -89 20 -133 32 -44 12 -107 28 -140
36 -264 67 -288 73 -322 85 -18 5 -56 15 -85 20 -29 6 -65 12 -80 16 -24 5
-28 1 -37 -33z"/>
<path d="M1775 6086 c-188 -88 -239 -344 -97 -490 71 -74 126 -96 242 -96 83
0 101 3 145 26 65 34 95 63 126 121 35 65 41 93 40 195 0 73 -4 96 -26 143
-29 60 -45 67 -84 34 -23 -19 -24 -21 -9 -47 28 -49 38 -124 26 -193 -10 -59
-16 -69 -70 -121 -51 -50 -64 -58 -97 -58 -22 0 -41 5 -44 13 -2 7 1 41 9 77
7 36 18 124 24 195 6 72 13 151 16 178 l6 47 -78 0 c-62 0 -90 -5 -129 -24z
m115 -147 c0 -38 -5 -89 -10 -112 -6 -23 -14 -80 -18 -127 -6 -79 -9 -85 -30
-88 -30 -4 -85 38 -117 89 -20 31 -25 52 -25 104 0 74 13 105 62 151 44 42 67
53 106 54 l32 0 0 -71z"/>
<path d="M9330 6059 c-30 -5 -120 -13 -200 -18 -80 -6 -170 -15 -200 -20 -30
-6 -97 -13 -149 -16 -52 -3 -96 -6 -97 -8 -1 -1 4 -38 12 -82 7 -44 14 -114
14 -155 0 -41 5 -109 11 -150 6 -41 14 -104 17 -140 l7 -65 44 2 c24 1 45 4
47 5 2 2 -1 37 -6 78 -16 118 -33 400 -25 408 12 13 259 20 267 8 4 -6 8 -38
8 -71 0 -33 5 -98 11 -145 6 -47 14 -107 18 -135 l6 -50 40 3 c22 2 42 6 44 8
3 2 -1 39 -7 82 -6 42 -14 134 -18 204 -7 148 -20 135 141 140 l110 3 8 -45
c4 -25 12 -117 17 -205 12 -178 18 -205 53 -205 53 0 56 11 46 180 -4 85 -13
184 -19 220 -6 36 -12 90 -13 120 l-2 55 -65 1 c-36 1 -90 -2 -120 -7z"/>
<path d="M1576 5392 c-2 -4 -1 -23 3 -42 7 -34 10 -36 101 -68 52 -18 131 -44
175 -58 44 -15 94 -32 111 -39 18 -8 49 -17 70 -21 59 -11 67 -25 31 -51 -17
-13 -34 -23 -38 -23 -5 0 -73 -35 -152 -77 -79 -43 -169 -91 -200 -108 l-57
-30 0 -52 c0 -48 12 -75 24 -55 3 5 45 29 93 55 48 25 120 63 158 85 39 22 97
54 130 72 33 17 92 48 130 69 l70 37 -4 55 c-4 59 -7 64 -66 80 -22 6 -53 17
-70 24 -16 7 -61 23 -100 35 -38 12 -81 27 -95 32 -14 6 -38 14 -55 18 -16 5
-68 22 -115 39 -83 30 -134 39 -144 23z"/>
<path d="M8735 5266 c-8 -19 -15 -41 -15 -49 0 -15 123 -41 245 -52 82 -8 162
-30 190 -54 63 -51 85 -126 65 -216 -22 -98 -97 -136 -229 -116 -38 6 -90 11
-115 11 -25 0 -75 7 -112 16 -37 8 -72 13 -79 10 -17 -6 -24 -74 -10 -93 8
-10 41 -18 101 -24 49 -6 121 -15 159 -22 159 -27 252 -10 316 60 52 55 63 90
62 200 0 82 -3 107 -16 121 -10 10 -17 23 -17 29 0 6 -7 17 -17 24 -14 12 -11
15 33 19 l49 5 0 45 0 45 -75 5 c-41 3 -80 9 -86 12 -6 4 -60 12 -120 18 -60
6 -131 15 -159 20 -27 5 -74 12 -103 15 l-52 7 -15 -36z"/>
<path d="M2151 4734 c-27 -35 -27 -37 13 -68 19 -14 44 -47 56 -73 12 -27 26
-56 31 -65 14 -27 10 -121 -6 -142 -8 -11 -15 -26 -15 -34 0 -23 -70 -82 -97
-82 -12 0 -43 71 -43 96 0 10 -7 39 -15 64 -8 25 -24 79 -35 120 -11 41 -27
96 -35 121 -8 26 -15 54 -15 63 0 10 -8 16 -23 16 -63 0 -190 -98 -227 -176
-20 -39 -22 -57 -17 -137 5 -94 14 -123 66 -196 40 -55 110 -91 216 -108 33
-5 142 20 187 43 51 26 122 108 141 161 44 128 -1 307 -99 392 -42 38 -57 39
-83 5z m-204 -116 c6 -7 13 -34 16 -60 4 -26 11 -56 16 -65 5 -10 14 -38 20
-63 15 -56 38 -137 47 -167 6 -22 3 -23 -42 -23 -136 0 -225 123 -190 261 11
40 25 63 55 91 42 40 62 46 78 26z"/>
<path d="M8433 4602 c-122 -118 -188 -328 -139 -443 27 -64 138 -149 233 -179
15 -5 53 -18 83 -30 30 -12 71 -26 90 -32 19 -5 40 -14 45 -18 6 -4 26 -13 45
-18 19 -6 73 -24 119 -41 45 -17 87 -28 92 -25 16 10 41 65 35 80 -3 8 -13 14
-21 14 -9 0 -25 5 -36 11 -19 10 -18 12 18 36 52 35 100 89 126 143 17 37 21
64 22 146 0 99 -1 102 -34 151 -36 52 -122 123 -151 123 -10 0 -37 7 -61 16
-40 14 -49 14 -109 -2 -36 -9 -72 -23 -81 -30 -8 -8 -20 -14 -26 -14 -19 0
-79 -75 -109 -136 -25 -51 -29 -71 -29 -141 0 -52 5 -87 13 -95 22 -22 15 -39
-15 -32 -50 12 -130 73 -152 115 -26 48 -26 77 -3 149 26 81 55 130 106 180
25 24 46 51 46 60 0 16 -39 60 -52 60 -4 0 -29 -21 -55 -48z m515 -194 c30
-15 56 -39 75 -68 27 -42 28 -50 25 -126 -4 -74 -8 -86 -39 -130 -33 -47 -120
-104 -158 -104 -34 0 -134 46 -165 76 -86 83 -67 258 36 336 44 33 54 36 122
37 42 1 72 -5 104 -21z"/>
<path d="M2118 4030 c-108 -44 -188 -113 -235 -203 -25 -48 -27 -61 -27 -177
l-1 -125 39 -80 c22 -44 68 -128 102 -186 34 -59 65 -116 69 -128 11 -36 18
-34 245 96 52 30 102 58 110 64 8 5 25 13 37 19 12 5 57 30 100 55 43 25 85
50 93 55 8 5 44 24 79 42 35 18 66 39 68 45 3 7 -7 34 -22 60 -15 27 -41 73
-57 103 -102 186 -141 241 -216 300 -76 60 -136 80 -245 79 -67 0 -105 -5
-139 -19z m256 -105 c69 -31 139 -93 178 -160 16 -27 33 -57 38 -65 59 -99 77
-139 67 -149 -6 -6 -14 -11 -18 -11 -5 0 -56 -28 -116 -63 -59 -34 -119 -68
-133 -75 -26 -12 -34 -17 -108 -64 -24 -16 -46 -28 -50 -28 -4 0 -19 -8 -32
-17 -14 -10 -40 -23 -57 -29 -36 -13 -36 -13 -101 106 -76 139 -85 163 -90
246 -4 72 -1 89 20 136 32 69 86 122 168 163 85 43 153 46 234 10z"/>
<path d="M8310 3838 c-11 -18 -20 -35 -20 -38 1 -15 21 -31 75 -61 76 -42 107
-59 246 -139 63 -35 137 -76 166 -91 l52 -27 21 35 c11 19 20 39 20 44 0 12
-40 48 -53 49 -5 0 -46 23 -93 50 -47 28 -86 50 -89 50 -2 0 -43 23 -92 51
-118 69 -194 109 -205 109 -4 0 -17 -15 -28 -32z"/>
<path d="M8172 3594 c-35 -42 -35 -42 64 -115 33 -23 61 -46 64 -50 3 -4 32
-28 64 -53 90 -70 111 -105 111 -185 0 -57 -4 -72 -30 -110 -46 -68 -77 -86
-145 -86 -67 1 -70 3 -255 150 -66 52 -127 95 -136 95 -18 0 -59 -40 -59 -59
0 -15 60 -72 120 -113 25 -18 67 -51 94 -75 27 -24 77 -60 112 -79 78 -43 145
-48 217 -14 93 44 170 165 169 267 0 54 0 54 21 39 12 -9 28 -19 35 -23 15 -6
59 33 64 57 3 16 -87 99 -170 158 -22 15 -96 73 -166 130 -70 56 -131 102
-136 102 -5 0 -22 -16 -38 -36z"/>
<path d="M8981 3471 c-28 -39 -26 -62 7 -94 35 -34 43 -34 81 2 36 34 39 58
10 95 -29 36 -71 35 -98 -3z"/>
<path d="M2972 3078 c-69 -27 -145 -96 -179 -161 -23 -45 -26 -64 -27 -147 0
-87 2 -99 28 -143 58 -97 142 -156 237 -164 32 -3 59 -9 59 -12 -1 -10 -23
-37 -116 -137 -49 -53 -91 -101 -93 -106 -3 -9 62 -78 73 -78 2 0 37 39 77 87
41 48 117 134 169 192 52 58 122 138 154 176 33 39 64 75 70 80 37 35 106 116
106 124 0 6 -16 22 -35 37 l-36 27 -33 -32 c-37 -36 -46 -29 -46 32 0 79 -94
187 -197 226 -69 26 -142 26 -211 -1z m163 -89 c56 -15 111 -55 146 -105 76
-111 5 -278 -140 -331 -50 -19 -56 -19 -109 -4 -43 12 -68 27 -108 68 -46 46
-53 58 -59 105 -10 78 7 128 64 190 33 36 63 57 97 69 60 21 60 21 109 8z"/>
<path d="M7650 2978 c-81 -34 -114 -54 -159 -98 -55 -54 -92 -121 -95 -172 -1
-32 0 -33 41 -36 39 -3 43 -1 49 25 19 84 89 154 184 186 52 18 57 18 115 1
54 -15 85 -36 85 -54 0 -4 -35 -34 -77 -68 -43 -33 -95 -76 -116 -94 -20 -18
-71 -60 -112 -93 -41 -33 -75 -67 -75 -75 0 -24 79 -96 130 -119 67 -30 184
-29 253 3 114 53 194 184 184 301 -3 33 -15 82 -26 109 -30 68 -126 159 -191
180 -55 18 -152 20 -190 4z m296 -250 c35 -78 14 -156 -64 -231 -34 -34 -47
-39 -98 -44 -70 -6 -134 9 -159 37 -22 24 -37 9 157 165 64 52 119 99 123 104
11 19 22 12 41 -31z"/>
<path d="M3612 2633 c-5 -10 -6 -29 -3 -43 6 -23 13 -25 71 -30 149 -12 254
-110 254 -237 0 -82 -8 -84 -126 -19 -57 31 -110 61 -118 66 -58 36 -207 115
-218 115 -8 0 -24 -25 -37 -55 -34 -79 -35 -192 -1 -258 30 -59 97 -122 162
-153 64 -30 191 -33 244 -5 169 89 244 278 171 429 -32 66 -66 104 -129 144
-67 43 -131 63 -204 63 -45 0 -59 -4 -66 -17z m-31 -289 c8 -8 19 -14 23 -14
5 0 34 -15 65 -34 51 -30 127 -73 190 -106 l23 -12 -43 -44 -43 -44 -77 0
c-68 0 -80 3 -115 29 -73 53 -93 82 -100 141 -8 73 7 114 39 104 12 -3 29 -13
38 -20z"/>
<path d="M7039 2575 c-106 -39 -212 -133 -222 -198 -6 -37 -2 -43 34 -52 22
-5 30 -2 45 21 61 89 162 154 241 154 39 0 119 -38 148 -70 19 -21 19 -22 -3
-38 -12 -10 -73 -44 -135 -76 -61 -32 -119 -64 -127 -70 -8 -7 -46 -27 -83
-44 -37 -18 -70 -39 -73 -46 -7 -19 49 -99 95 -136 60 -47 101 -60 190 -60 92
0 151 24 214 85 73 71 90 108 95 200 4 78 2 88 -28 154 -59 127 -155 192 -284
190 -39 0 -87 -6 -107 -14z m319 -327 l3 -77 -54 -54 c-57 -57 -83 -67 -164
-67 -53 0 -100 20 -137 59 -21 22 -25 31 -14 37 15 10 72 40 198 106 52 28
104 57 115 64 39 28 50 15 53 -68z"/>
<path d="M6553 2359 l-32 -9 15 -43 c101 -294 110 -333 93 -395 -15 -53 -75
-117 -120 -127 -32 -7 -34 -16 -18 -64 19 -55 77 -38 151 44 15 16 30 38 34
48 8 26 27 16 39 -21 11 -39 42 -43 79 -9 l25 22 -24 70 c-14 39 -29 79 -34
90 -5 11 -18 54 -31 95 -12 41 -28 91 -35 110 -8 19 -24 67 -36 105 -32 101
-36 104 -106 84z"/>
<path d="M4383 2308 c-25 -28 -93 -142 -93 -156 0 -5 -6 -15 -14 -21 -12 -10
-140 -216 -186 -299 -9 -15 -28 -45 -43 -67 -15 -22 -27 -43 -27 -47 0 -5 -16
-30 -35 -57 -19 -26 -35 -54 -35 -60 0 -15 68 -44 86 -37 7 3 23 22 34 43 12
21 48 81 80 133 61 98 163 264 190 309 45 75 72 112 78 106 7 -6 11 -42 31
-230 7 -60 17 -150 22 -200 6 -49 14 -130 18 -180 l6 -90 48 -9 c60 -10 63 -8
135 111 110 181 158 259 205 331 26 40 47 76 47 80 1 13 49 66 55 60 4 -3 11
-68 16 -143 5 -75 12 -141 15 -147 3 -5 10 -78 15 -161 8 -144 23 -242 38
-251 3 -2 26 -7 50 -11 l44 -7 -6 89 c-4 50 -11 121 -17 159 -5 38 -15 130
-21 204 -27 325 -35 400 -46 411 -7 7 -36 14 -66 17 l-54 4 -28 -48 c-15 -27
-43 -72 -61 -101 -19 -28 -34 -54 -34 -57 0 -3 -15 -27 -34 -53 -33 -47 -132
-209 -171 -279 -39 -70 -43 -56 -69 226 -9 91 -20 187 -26 213 -5 26 -10 77
-10 113 0 79 -10 100 -52 109 -18 4 -40 8 -49 11 -8 2 -24 -6 -36 -18z"/>
<path d="M5820 1909 c-25 -4 -66 -11 -92 -15 -48 -7 -48 -7 -48 -45 0 -21 5
-41 10 -44 6 -4 34 -2 63 4 28 6 96 13 150 17 l97 6 0 28 c0 55 -7 60 -74 59
-33 -1 -81 -5 -106 -10z"/>
</g>
</svg>
